#!OML:ASF F:\VICON\USERDATA\INSTALL\rory3\rory3.ASF
:FULLY-SPECIFIED
:DEGREES
2263
root -0.0966117 18.5987 -1.18141 -4.84438 -2.98988 1.46006
lowerback 3.44477 -0.391248 -3.81191
upperback 0.0805604 -0.682811 -0.532224
thorax -1.81118 -0.3103 1.62396
lowerneck -10.6565 -4.4846 -10.7655
upperneck 15.3407 -5.93168 9.73391
head 7.04958 -2.69775 4.38627
rclavicle -7.86442e-015 -8.34896e-015
rhumerus 16.7668 -18.191 -28.3816
rradius 17.0795
rwrist 35.1887
rhand -32.2244 4.50527
rfingers 7.12502
rthumb -5.46536 -25.4043
lclavicle -7.86442e-015 -8.34896e-015
lhumerus 12.655 11.6555 24.4603
lradius 16.6699
lwrist -10.1336
lhand -24.6481 21.0093
lfingers 7.12502
lthumb 1.85141 50.981
rfemur -7.56701 22.9725 17.056
rtibia 28.4479
rfoot -17.3482 -9.65121
rtoes 0.0266322
lfemur -0.650899 -6.89973 -18.2618
ltibia 24.5456
lfoot -19.3662 20.5953
ltoes -2.62524
2264
root -0.0964768 18.5964 -1.1889 -4.89186 -2.9844 1.42206
lowerback 3.53498 -0.424119 -3.75104
upperback 0.165547 -0.726207 -0.533594
thorax -1.77264 -0.33424 1.591
lowerneck -10.6891 -4.52671 -10.7671
upperneck 15.2504 -5.99425 9.81277
head 7.03575 -2.72069 4.40476
rclavicle 4.8081e-015 -6.16232e-015
rhumerus 16.708 -19.123 -28.3364
rradius 16.8527
rwrist 35.823
rhand -32.4142 4.04604
rfingers 7.12502
rthumb -5.64866 -25.8587
lclavicle 4.8081e-015 -6.16232e-015
lhumerus 12.0831 11.3103 23.7683
lradius 16.519
lwrist -9.80863
lhand -24.4211 21.3117
lfingers 7.12502
lthumb 2.07065 51.2814
rfemur -7.55825 23.0167 17.1172
rtibia 28.4904
rfoot -17.3658 -9.692
rtoes -0.0168279
lfemur -0.697398 -6.6806 -18.1635
ltibia 24.6681
lfoot -19.3665 20.2965
ltoes -2.43532
2265
root -0.0961687 18.5923 -1.19682 -4.87774 -3.0091 1.33833
lowerback 3.6477 -0.459161 -3.62936
upperback 0.185965 -0.772291 -0.517953
thorax -1.81364 -0.357707 1.54232
lowerneck -10.5659 -4.55042 -10.8148
upperneck 15.0262 -6.02879 9.88912
head 6.94978 -2.73747 4.43361
rclavicle -1.31074e-014 -1.05356e-014
rhumerus 16.5997 -19.8256 -28.1984
rradius 16.6825
rwrist 36.0524
rhand -33.3169 4.18552
rfingers 7.12502
rthumb -6.52018 -25.6941
lclavicle -1.31074e-014 -1.05356e-014
lhumerus 11.414 10.9403 23.0336
lradius 16.4245
lwrist -9.2904
lhand -24.2495 21.7993
lfingers 7.12502
lthumb 2.23645 51.7673
rfemur -7.63897 23.0166 17.1967
rtibia 28.5256
rfoot -17.32 -9.70044
rtoes -0.0262301
lfemur -0.842253 -6.47955 -18.0063
ltibia 24.8163
lfoot -19.3007 20.1135
ltoes -2.78902
2266
root -0.0954843 18.5901 -1.20284 -4.87209 -3.05082 1.25842
lowerback 3.70792 -0.490397 -3.50176
upperback 0.255266 -0.809354 -0.507151
thorax -1.7757 -0.37866 1.48406
lowerneck -10.3439 -4.57308 -10.9008
upperneck 14.6176 -6.06022 10.0138
head 6.79016 -2.75409 4.48459
rclavicle -4.16205e-016 6.36111e-015
rhumerus 16.4846 -20.2859 -27.8857
rradius 16.5735
rwrist 36.0521
rhand -33.4068 4.43464
rfingers 7.12502
rthumb -6.60694 -25.4423
lclavicle -4.16205e-016 6.36111e-015
lhumerus 10.8966 11.2087 22.4877
lradius 16.2266
lwrist -9.20556
lhand -23.9612 21.9812
lfingers 7.12502
lthumb 2.51479 51.9461
rfemur -7.71069 23.0556 17.2751
rtibia 28.5741
rfoot -17.304 -9.70181
rtoes 0.066094
lfemur -0.962148 -6.24041 -17.8536
ltibia 24.9624
lfoot -19.2984 19.8727
ltoes -2.78579
2267
root -0.0931564 18.5889 -1.20724 -4.85198 -3.09572 1.20168
lowerback 3.70331 -0.529556 -3.39894
upperback 0.340337 -0.854445 -0.475847
thorax -1.68431 -0.404319 1.46022
lowerneck -10.181 -4.5877 -10.9597
upperneck 14.2854 -6.06468 10.0228
head 6.65864 -2.76345 4.49553
rclavicle -3.78933e-016 -2.18663e-015
rhumerus 16.2006 -19.6722 -27.018
rradius 16.6175
rwrist 34.9122
rhand -33.3211 4.29601
rfingers 7.12502
rthumb -6.52416 -25.5835
lclavicle -3.78933e-016 -2.18663e-015
lhumerus 10.255 10.9768 21.7485
lradius 16.1854
lwrist -8.4005
lhand -23.6808 22.4239
lfingers 7.12502
lthumb 2.78562 52.3855
rfemur -7.77475 23.085 17.3242
rtibia 28.6333
rfoot -17.3037 -9.72071
rtoes -0.0646108
lfemur -1.07436 -6.01899 -17.7427
ltibia 25.0985
lfoot -19.294 19.6651
ltoes -2.76417
2268
root -0.0898725 18.5863 -1.2109 -4.85675 -3.10927 1.25202
lowerback 3.72205 -0.556911 -3.38057
upperback 0.387425 -0.890207 -0.497372
thorax -1.64523 -0.423528 1.42948
lowerneck -9.96451 -4.63576 -11.028
upperneck 14.087 -6.12629 10.0153
head 6.56675 -2.80354 4.4992
rclavicle -1.47411e-014 4.96962e-015
rhumerus 15.9972 -19.5289 -26.3524
rradius 16.5283
rwrist 34.4213
rhand -33.4546 4.26794
rfingers 7.12502
rthumb -6.65309 -25.6075
lclavicle -1.47411e-014 4.96962e-015
lhumerus 9.64538 10.3874 20.8946
lradius 16.1849
lwrist -7.29084
lhand -23.3563 23.2022
lfingers 7.12502
lthumb 3.09899 53.1594
rfemur -7.82594 22.979 17.2423
rtibia 28.7082
rfoot -17.3027 -9.62092
rtoes -0.0700219
lfemur -1.14457 -5.81553 -17.762
ltibia 25.2051
lfoot -19.2024 19.4986
ltoes -2.90892
2269
root -0.0883069 18.5831 -1.21379 -4.91587 -3.17895 1.3377
lowerback 3.75579 -0.546934 -3.3945
upperback 0.466857 -0.878048 -0.555255
thorax -1.58379 -0.419419 1.37707
lowerneck -9.8975 -4.72892 -10.9871
upperneck 13.9904 -6.23791 9.87374
head 6.5315 -2.86764 4.43419
rclavicle 1.95679e-015 -1.09332e-014
rhumerus 15.8967 -19.9231 -25.9042
rradius 16.3254
rwrist 34.6498
rhand -33.4881 4.69301
rfingers 7.12502
rthumb -6.68542 -25.1815
lclavicle 1.95679e-015 -1.09332e-014
lhumerus 9.35462 10.7028 20.3242
lradius 15.95
lwrist -6.99883
lhand -22.9824 23.5973
lfingers 7.12502
lthumb 3.46005 53.549
rfemur -7.85128 23.0114 17.1509
rtibia 28.8202
rfoot -17.3443 -9.51181
rtoes 0.214162
lfemur -1.11799 -5.56834 -17.8184
ltibia 25.2672
lfoot -19.1133 19.3064
ltoes -2.99374
2270
root -0.086958 18.5803 -1.21842 -4.97623 -3.28134 1.40553
lowerback 3.81408 -0.53653 -3.40676
upperback 0.53766 -0.866316 -0.603829
thorax -1.54481 -0.415038 1.33371
lowerneck -9.96364 -4.77932 -10.8577
upperneck 14.0261 -6.29014 9.66739
head 6.54966 -2.89948 4.33843
rclavicle -1.18339e-014 -2.78299e-015
rhumerus 15.7397 -19.7608 -25.2148
rradius 16.218
rwrist 34.4755
rhand -33.492 5.59799
rfingers 7.12502
rthumb -6.68919 -24.2764
lclavicle -1.18339e-014 -2.78299e-015
lhumerus 9.47948 12.5066 20.1591
lradius 15.1612
lwrist -7.97834
lhand -22.686 23.8615
lfingers 7.12502
lthumb 3.74638 53.8083
rfemur -7.89377 23.0726 17.0861
rtibia 28.9417
rfoot -17.3737 -9.41431
rtoes 0.327366
lfemur -1.08668 -5.3925 -17.8672
ltibia 25.3138
lfoot -19.0999 19.1992
ltoes -2.76612
2271
root -0.0840059 18.5779 -1.22246 -5.00773 -3.35586 1.57687
lowerback 3.86271 -0.53093 -3.53573
upperback 0.559753 -0.866685 -0.655205
thorax -1.5482 -0.414822 1.35362
lowerneck -9.98723 -4.7914 -10.8668
upperneck 14.2149 -6.30094 9.57899
head 6.61244 -2.91119 4.31091
rclavicle 2.68359e-015 1.63003e-014
rhumerus 15.6029 -19.4925 -24.4771
rradius 16.1892
rwrist 34.3327
rhand -33.7275 6.38769
rfingers 7.12502
rthumb -6.9165 -23.4793
lclavicle 2.68359e-015 1.63003e-014
lhumerus 9.55972 14.2308 19.959
lradius 14.5126
lwrist -8.58531
lhand -22.3743 24.2735
lfingers 7.12502
lthumb 4.04735 54.2148
rfemur -7.95704 23.0747 16.8813
rtibia 29.0477
rfoot -17.4004 -9.31763
rtoes 0.22703
lfemur -1.10781 -5.29537 -18.0535
ltibia 25.3822
lfoot -19.0808 19.1913
ltoes -2.90551
2272
root -0.0808132 18.576 -1.22491 -5.0532 -3.44329 1.60755
lowerback 3.94666 -0.556331 -3.51412
upperback 0.567872 -0.903456 -0.671138
thorax -1.58566 -0.432818 1.32802
lowerneck -9.8989 -4.77717 -10.8889
upperneck 14.3289 -6.2825 9.50769
head 6.62967 -2.91137 4.29527
rclavicle 2.35622e-014 7.7526e-015
rhumerus 15.3571 -18.3816 -23.4518
rradius 16.3962
rwrist 33.4142
rhand -34.3042 5.10882
rfingers 7.12502
rthumb -7.47323 -24.7392
lclavicle 2.35622e-014 7.7526e-015
lhumerus 9.65456 16.939 19.9718
lradius 14.0192
lwrist -9.80693
lhand -22.1334 24.8355
lfingers 7.12502
lthumb 4.27992 54.7723
rfemur -7.9796 23.1237 16.86
rtibia 29.1551
rfoot -17.451 -9.28985
rtoes 0.190322
lfemur -1.10585 -5.14046 -18.0748
ltibia 25.4553
lfoot -19.0124 19.1531
ltoes -3.3767
2273
root -0.0804779 18.5722 -1.22777 -5.04765 -3.59438 1.48753
lowerback 4.01878 -0.555357 -3.36405
upperback 0.535655 -0.899122 -0.640692
thorax -1.6612 -0.429906 1.27624
lowerneck -9.67099 -4.78957 -11.025
upperneck 14.3491 -6.30885 9.54734
head 6.60479 -2.93476 4.33213
rclavicle 8.83349e-015 -1.59028e-015
rhumerus 14.9912 -16.7937 -22.1887
rradius 16.8066
rwrist 32.0229
rhand -34.3088 4.60212
rfingers 7.12502
rthumb -7.47766 -25.2457
lclavicle 8.83349e-015 -1.59028e-015
lhumerus 9.8469 20.1852 20.2332
lradius 13.769
lwrist -10.9973
lhand -21.9059 25.4086
lfingers 7.12502
lthumb 4.49964 55.3408
rfemur -8.09632 23.3021 16.996
rtibia 29.2847
rfoot -17.4726 -9.28871
rtoes 0.522086
lfemur -1.1359 -4.95649 -17.9029
ltibia 25.4941
lfoot -19.0053 19.0691
ltoes -3.45114
2274
root -0.0774361 18.5679 -1.23097 -5.03007 -3.72224 1.51797
lowerback 4.08738 -0.559345 -3.35548
upperback 0.487666 -0.908055 -0.633503
thorax -1.74857 -0.432503 1.28056
lowerneck -9.44653 -4.78341 -11.2579
upperneck 14.3991 -6.30969 9.6664
head 6.59281 -2.94519 4.4142
rclavicle -1.26228e-014 -8.94531e-015
rhumerus 14.8945 -15.8507 -21.1875
rradius 17.128
rwrist 31.2094
rhand -33.6205 6.55336
rfingers 7.12502
rthumb -6.81326 -23.317
lclavicle -1.26228e-014 -8.94531e-015
lhumerus 9.91191 22.5134 20.2095
lradius 13.7008
lwrist -10.7545
lhand -21.6377 25.5043
lfingers 7.12502
lthumb 4.75859 55.4308
rfemur -8.24963 23.176 16.9041
rtibia 29.3927
rfoot -17.3985 -9.03609
rtoes 0.65725
lfemur -1.18683 -4.8261 -17.9234
ltibia 25.5384
lfoot -19.0733 19.0513
ltoes -3.24967
2275
root -0.0725027 18.5654 -1.2285 -5.10714 -3.85615 1.76193
lowerback 4.19642 -0.569174 -3.528
upperback 0.432024 -0.936455 -0.695401
thorax -1.86389 -0.44315 1.31697
lowerneck -9.18778 -4.75821 -11.3844
upperneck 14.4847 -6.28731 9.65931
head 6.57604 -2.9492 4.44009
rclavicle -4.28008e-015 3.97569e-016
rhumerus 14.9137 -15.2666 -20.3923
rradius 17.4614
rwrist 30.6208
rhand -33.2621 7.99079
rfingers 7.12502
rthumb -6.46726 -21.8905
lclavicle -4.28008e-015 3.97569e-016
lhumerus 9.69553 23.5056 19.6517
lradius 13.8791
lwrist -8.73958
lhand -21.5509 25.7947
lfingers 7.12502
lthumb 4.84246 55.7194
rfemur -8.27915 22.8654 16.5869
rtibia 29.4849
rfoot -17.3462 -8.56713
rtoes 0.622986
lfemur -1.09098 -4.77994 -18.2271
ltibia 25.5585
lfoot -19.202 19.1178
ltoes -3.01268
2276
root -0.0696553 18.5636 -1.22284 -5.22939 -4.07572 1.75508
lowerback 4.33214 -0.580118 -3.49487
upperback 0.379945 -0.956185 -0.660264
thorax -1.99251 -0.450429 1.3379
lowerneck -8.85468 -4.71491 -11.4612
upperneck 14.5587 -6.2314 9.5067
head 6.53284 -2.94703 4.41396
rclavicle -3.29237e-016 1.78906e-015
rhumerus 14.9311 -14.376 -19.4752
rradius 17.9076
rwrist 29.5391
rhand -33.7384 7.29925
rfingers 7.12502
rthumb -6.92703 -22.5674
lclavicle -3.29237e-016 1.78906e-015
lhumerus 9.25247 24.0262 18.9174
lradius 14.4472
lwrist -5.5772
lhand -21.3938 26.3417
lfingers 7.12502
lthumb 4.99416 56.2628
rfemur -8.20788 22.8078 16.6306
rtibia 29.5656
rfoot -17.3104 -8.37338
rtoes 0.309918
lfemur -0.892975 -4.68865 -18.2421
ltibia 25.5337
lfoot -19.2123 19.2451
ltoes -3.17983
